<svg xmlns="http://www.w3.org/2000/svg" viewBox="0 0 1600 1000" font-family="ui-monospace, monospace">
  <rect width="1600" height="1000" fill="#0b1120"/>
  <rect width="1600" height="72" fill="#111a2e"/>
  <circle cx="44" cy="36" r="11" fill="#ff5f56"/>
  <circle cx="82" cy="36" r="11" fill="#ffbd2e"/>
  <circle cx="120" cy="36" r="11" fill="#27c93f"/>
  <text x="168" y="45" fill="#64748b" font-size="24">analytics — dashboard (anonymized)</text>
  <rect x="120" y="140" width="380" height="160" rx="14" fill="#15203a"/>
  <rect x="540" y="140" width="380" height="160" rx="14" fill="#15203a"/>
  <rect x="960" y="140" width="380" height="160" rx="14" fill="#15203a"/>
  <text x="150" y="200" fill="#34d399" font-size="40" font-weight="bold">12.4k</text>
  <text x="570" y="200" fill="#34d399" font-size="40" font-weight="bold">98.2%</text>
  <text x="990" y="200" fill="#34d399" font-size="40" font-weight="bold">240ms</text>
  <rect x="120" y="340" width="1220" height="420" rx="16" fill="#0f1626"/>
  <polyline points="180,700 360,560 540,620 720,440 900,520 1080,360 1260,420" fill="none" stroke="#34d399" stroke-width="6"/>
  <polyline points="180,720 360,660 540,690 720,600 900,640 1080,560 1260,600" fill="none" stroke="#6366f1" stroke-width="6"/>
  <text x="800" y="900" fill="#34d399" font-size="34" text-anchor="middle" font-weight="bold">Analytics Platform — Dashboard</text>
  <text x="800" y="948" fill="#475569" font-size="22" text-anchor="middle">anonymized sample data — replace in /public/projects/</text>
</svg>
