<svg xmlns="http://www.w3.org/2000/svg" viewBox="0 0 1600 1000" font-family="ui-monospace, monospace">
  <rect width="1600" height="1000" fill="#0b1120"/>
  <rect width="1600" height="72" fill="#111a2e"/>
  <circle cx="44" cy="36" r="11" fill="#ff5f56"/>
  <circle cx="82" cy="36" r="11" fill="#ffbd2e"/>
  <circle cx="120" cy="36" r="11" fill="#27c93f"/>
  <text x="168" y="45" fill="#64748b" font-size="24">markdown-notes — editor</text>
  <rect x="80" y="120" width="700" height="800" rx="14" fill="#0f1626"/>
  <rect x="820" y="120" width="700" height="800" rx="14" fill="#15203a"/>
  <rect x="120" y="170" width="500" height="26" rx="6" fill="#334155"/>
  <rect x="120" y="220" width="620" height="20" rx="5" fill="#1e293b"/>
  <rect x="120" y="258" width="560" height="20" rx="5" fill="#1e293b"/>
  <rect x="120" y="296" width="600" height="20" rx="5" fill="#1e293b"/>
  <rect x="860" y="170" width="420" height="32" rx="6" fill="#22d3ee"/>
  <rect x="860" y="230" width="620" height="18" rx="5" fill="#334155"/>
  <rect x="860" y="266" width="580" height="18" rx="5" fill="#334155"/>
  <rect x="860" y="302" width="600" height="18" rx="5" fill="#334155"/>
  <text x="800" y="900" fill="#22d3ee" font-size="34" text-anchor="middle" font-weight="bold">Markdown Notes — Editor</text>
  <text x="800" y="948" fill="#475569" font-size="22" text-anchor="middle">screenshot placeholder — replace in /public/projects/</text>
</svg>
