<svg xmlns="http://www.w3.org/2000/svg" viewBox="0 0 1600 1000" font-family="ui-monospace, monospace">
  <rect width="1600" height="1000" fill="#0b1120"/>
  <rect width="1600" height="72" fill="#111a2e"/>
  <circle cx="44" cy="36" r="11" fill="#ff5f56"/>
  <circle cx="82" cy="36" r="11" fill="#ffbd2e"/>
  <circle cx="120" cy="36" r="11" fill="#27c93f"/>
  <text x="168" y="45" fill="#64748b" font-size="24">markdown-notes — library</text>
  <rect x="120" y="150" width="600" height="48" rx="10" fill="#15203a" stroke="#22d3ee" stroke-width="2"/>
  <text x="150" y="182" fill="#64748b" font-size="22">search notes…</text>
  <rect x="120" y="240" width="1360" height="110" rx="12" fill="#0f1626"/>
  <rect x="120" y="370" width="1360" height="110" rx="12" fill="#0f1626"/>
  <rect x="120" y="500" width="1360" height="110" rx="12" fill="#0f1626"/>
  <rect x="150" y="270" width="320" height="24" rx="6" fill="#334155"/>
  <rect x="150" y="310" width="900" height="16" rx="4" fill="#1e293b"/>
  <rect x="150" y="400" width="280" height="24" rx="6" fill="#334155"/>
  <rect x="150" y="440" width="820" height="16" rx="4" fill="#1e293b"/>
  <text x="800" y="900" fill="#22d3ee" font-size="34" text-anchor="middle" font-weight="bold">Markdown Notes — Library</text>
  <text x="800" y="948" fill="#475569" font-size="22" text-anchor="middle">screenshot placeholder — replace in /public/projects/</text>
</svg>
